<svg xmlns="http://www.w3.org/2000/svg" id="Layer_1" data-name="Layer 1" viewBox="0 0 60 60"><defs><style>      .cls-1 {        fill: #fff;      }    </style></defs><g id="change1_1" data-name="change1 1"><path class="cls-1" d="m20.05,1.73l2.58,4.61c-4.8,2.4-8.11,6.99-8.11,12.35h30.97c0-5.34-3.32-9.95-8.11-12.35l2.58-4.61s.18-.18-.18-.37c-.18-.18-.37.18-.37.18l-2.77,4.61c-2.15-.96-4.47-1.47-6.82-1.47-2.35.01-4.68.51-6.82,1.47l-2.76-4.61s-.18-.18-.37-.18c.01.14.08.27.18.37h0Zm2.6,9.03c.72,0,1.47.72,1.47,1.47s-.72,1.47-1.47,1.47c-.8.01-1.46-.63-1.47-1.43v-.04c-.01-.8.63-1.46,1.43-1.47h.04Zm14.75,0c.72,0,1.47.72,1.47,1.47s-.72,1.47-1.47,1.47c-.8.01-1.46-.63-1.47-1.43v-.04c-.01-.8.63-1.46,1.43-1.47h.04Zm-23.07,9.77v23.6c0,1.11,1.47,2.77,2.58,2.77h3.69v8.11c0,2.03,1.47,3.69,3.32,3.69s3.32-1.66,3.32-3.69v-8.11h5.34v8.11c0,2.03,1.47,3.69,3.32,3.69s3.32-1.66,3.32-3.69v-8.11h3.69c1.11,0,2.58-1.47,2.58-2.77v-23.6H14.32Z"></path><path id="A" class="cls-1" d="m9.17,19.98c1.84,0,3.32,1.66,3.32,3.69v14.01c0,2.03-1.47,3.69-3.32,3.69s-3.32-1.66-3.32-3.69v-14.01c0-2.03,1.48-3.69,3.32-3.69Z"></path><path id="A-2" data-name="A" class="cls-1" d="m50.83,19.98c1.84,0,3.32,1.66,3.32,3.69v14.01c0,2.03-1.47,3.69-3.32,3.69s-3.32-1.66-3.32-3.69v-14.01c0-2.03,1.47-3.69,3.32-3.69Z"></path></g></svg>