<svg xmlns="http://www.w3.org/2000/svg" id="Layer_1" data-name="Layer 1" viewBox="0 0 60 60"><defs><style>      .cls-1 {        fill: #fff;      }    </style></defs><path class="cls-1" d="m45.86,31.75c.1,8.8,7.7,11.7,7.8,11.8-.1.2-1.2,4.2-4,8.3-2.4,3.5-4.9,7.1-8.9,7.2-3.9.1-5.2-2.3-9.6-2.3s-5.9,2.2-9.5,2.4c-3.8.1-6.7-3.8-9.2-7.4-5-7.2-8.8-20.4-3.7-29.3,2.5-4.4,7.1-7.2,12.1-7.3,3.8-.1,7.3,2.5,9.6,2.5s6.6-3.1,11.1-2.7c1.9.1,7.2.8,10.7,5.8-.4.1-6.5,3.7-6.4,11m-7.3-21.6c2-2.5,3.4-5.9,3-9.3-2.9.1-6.5,2-8.6,4.4-1.9,2.2-3.5,5.7-3.1,9,3.3.3,6.6-1.6,8.7-4.1"></path></svg>