<svg xmlns="http://www.w3.org/2000/svg" id="Layer_1" data-name="Layer 1" viewBox="0 0 60 60"><defs><style>      .cls-1 {        fill: #fff;      }    </style></defs><g id="change1_1" data-name="change1 1"><path class="cls-1" d="m3.99.5l4.74,53.11,21.24,5.89,21.31-5.9L56.01.5H3.99Zm12.64,44.01l-.91-10.22h6.54l.46,5.19,7.26,1.96h.02s0,.02,0,.02l7.27-1.96.73-8.45H15.43l-1.76-19.69h32.63l-.16,1.74-.3,3.3-.13,1.47h-24.92l.6,6.67h23.75l-1.79,19.99-13.35,3.7v-.04h-.02s-13.35-3.68-13.35-3.68Z"></path></g><g id="change2_1" data-name="change2 1"><polygon class="cls-1" points="38 31.05 37.26 39.5 30 41.46 30 31.05 38 31.05"></polygon><polygon class="cls-1" points="51.26 4.84 47.22 50.22 30 54.99 30 48.23 43.35 44.53 45.14 24.54 30 24.54 30 17.87 45.71 17.87 45.84 16.4 46.14 13.1 46.29 11.36 30 11.36 30 4.84 51.26 4.84"></polygon></g></svg>