<svg xmlns="http://www.w3.org/2000/svg" id="Layer_1" data-name="Layer 1" viewBox="0 0 60 60"><defs><style>      .cls-1 {        fill: #fff;      }    </style></defs><g id="vJ2pFp"><g><path class="cls-1" d="m3.52,23.68c1.1-5.7,4.03-10.32,8.35-14.12C23.63-.78,42.35,1.45,51.42,14.24c.71,1,.83,1.65,0,2.69-2.7,3.42-5.27,6.95-8.05,10.65-2.7-3.64-5.27-7.08-7.81-10.54-.99-1.36-2.14-2.23-4.28-1.7.49.73.83,1.3,1.24,1.84,2.66,3.47,5.27,6.98,8.02,10.38,1.01,1.26,1.15,2.13.08,3.48-3.11,3.94-6.04,8.02-9.04,12.06-.37.5-.7,1.03-1.11,1.65,1.95.67,2.96-.31,3.85-1.49,2.54-3.4,5.04-6.82,7.57-10.22.42-.57.87-1.13,1.42-1.82.39.43.75.76,1.03,1.15,2.5,3.43,5.02,6.84,7.43,10.32.37.54.56,1.69.25,2.15-5.9,8.62-14.21,12.84-24.56,12.04-10.78-.83-18.45-6.57-22.9-16.48-.1-.21-.07-.48-.14-1.08,4.18,5.82,9.58,7.46,16.01,5.68,4.6-1.28,7.46-4.89,8.14-9.78-1.52-.73-2.09.21-2.56,1.41-2.22,5.61-7.34,8.19-13.07,6.61-4.76-1.32-8.56-6.95-8.01-11.74.16-1.37,1.09-1.07,1.87-1.07,6.59-.02,13.18-.01,19.78-.01,2.56,0,2.8-.09,2.37-2.64-.42-2.47-.83-5.13-2.04-7.24-4.83-8.39-16.82-8.18-21.86.22-.56.94-1.01,1.95-1.52,2.93Z"></path><path class="cls-1" d="m5.11,28.25c.18-4.41,1.74-7.93,5.45-10.15,3.64-2.17,7.48-2.36,11.11.03,3.54,2.34,4.9,5.87,5.03,10.12H5.11Z"></path><path class="cls-1" d="m53.98,41.47c-2.94-3.91-5.68-7.47-8.29-11.11-.34-.47-.31-1.62.04-2.1,2.48-3.42,5.09-6.74,7.86-10.36,3.74,7.86,3.83,15.46.39,23.57Z"></path></g></g></svg>