<svg xmlns="http://www.w3.org/2000/svg" id="Layer_1" data-name="Layer 1" viewBox="0 0 97.47 60"><defs><style>      .cls-1 {        fill: #fff;      }    </style></defs><g id="change1_1" data-name="change1 1"><path class="cls-1" d="m7.36,22.81c-.19,0-.24-.1-.14-.24l1-1.28c.1-.14.34-.24.52-.24h16.94c.19,0,.24.14.14.28l-.8,1.24c-.1.14-.34.28-.48.28l-17.18-.04h0ZM.19,27.18c-.19,0-.24-.1-.14-.24l1-1.28c.1-.14.34-.24.52-.24h21.64c.19,0,.28.14.24.28l-.38,1.14c-.04.19-.24.28-.42.28l-22.45.05Zm11.48,4.37c-.19,0-.24-.14-.14-.28l.66-1.18c.1-.14.28-.28.48-.28h9.49c.19,0,.28.14.28.34l-.1,1.14c0,.19-.19.34-.34.34l-10.34-.06h0Zm49.27-9.58l-7.97,2.09c-.72.19-.76.24-1.38-.48-.72-.8-1.24-1.33-2.23-1.8-2.99-1.47-5.89-1.04-8.59.72-3.23,2.09-4.89,5.17-4.84,9.02.04,3.79,2.66,6.93,6.41,7.45,3.23.42,5.93-.72,8.07-3.13.42-.52.8-1.1,1.28-1.76h-9.17c-1,0-1.24-.62-.9-1.42.62-1.47,1.76-3.94,2.42-5.17.14-.28.48-.76,1.18-.76h17.27c-.1,1.28-.1,2.56-.28,3.84-.52,3.42-1.8,6.55-3.89,9.3-3.42,4.51-7.88,7.31-13.52,8.07-4.65.62-8.97-.28-12.76-3.13-3.52-2.66-5.51-6.17-6.03-10.54-.62-5.17.9-9.82,4.03-13.9,3.37-4.41,7.83-7.21,13.29-8.21,4.46-.8,8.73-.28,12.58,2.32,2.52,1.66,4.32,3.94,5.51,6.69.29.42.1.66-.47.8h0Z"></path></g><g id="change1_2" data-name="change1 2"><path class="cls-1" d="m76.65,48.21c-4.32-.1-8.26-1.33-11.58-4.18-2.8-2.42-4.55-5.51-5.13-9.16-.86-5.36.62-10.11,3.84-14.34,3.46-4.55,7.64-6.93,13.29-7.93,4.84-.86,9.4-.38,13.52,2.42,3.75,2.56,6.07,6.03,6.69,10.58.8,6.41-1.04,11.62-5.45,16.09-3.13,3.18-6.97,5.17-11.39,6.07-1.27.25-2.56.3-3.79.44h0Zm11.3-19.17c-.04-.62-.04-1.1-.14-1.56-.86-4.7-5.17-7.35-9.68-6.31-4.41,1-7.27,3.79-8.31,8.26-.86,3.7.95,7.45,4.37,8.97,2.61,1.14,5.22,1,7.73-.28,3.75-1.95,5.79-4.99,6.03-9.07h0Z"></path></g></svg>