<svg xmlns="http://www.w3.org/2000/svg" xmlns:xlink="http://www.w3.org/1999/xlink" id="Layer_1" x="0px" y="0px" viewBox="0 0 110 60" style="enable-background:new 0 0 110 60;" xml:space="preserve"><style type="text/css">	.st0{fill:#FFFFFF;}	.st1{fill:#0EC878;}	.st2{fill:#00D8FF;}	.st3{fill:#47C5FB;}	.st4{fill:#00569E;}	.st5{fill:#00B5F8;}	.st6{fill:url(#SVGID_1_);fill-opacity:0.8;}	.st7{fill:url(#SVGID_00000108307779428091928080000015203903226063356045_);fill-opacity:0.8;}	.st8{fill:#E23237;}	.st9{fill:#B52E31;}	.st10{fill:#41B883;}	.st11{fill:#35495E;}	.st12{fill:#F7DF1E;}	.st13{fill:#8CC84B;}	.st14{fill:#EF533F;}	.st15{fill:url(#SVGID_00000176747685505684103530000017455823576208063888_);}	.st16{fill:url(#SVGID_00000016772541872433038930000001138997346885208479_);}	.st17{fill:#00ACD7;}	.st18{fill:url(#SVGID_00000168098809649664522310000007666366692929168558_);}	.st19{fill:url(#SVGID_00000173124101245295119250000011999851258248747165_);}	.st20{fill:#14559A;}	.st21{fill:url(#SVGID_00000037689123139272283110000017548660692375311505_);}	.st22{fill:#3092C4;}	.st23{fill:#1969BC;}	.st24{fill:url(#SVGID_00000040546237782849436150000005184748247893009599_);}	.st25{fill:url(#SVGID_00000065754801601271805290000006531478070053506179_);}	.st26{fill:url(#SVGID_00000145749315496068174430000003293086695069616061_);}	.st27{fill:#2B74B1;}	.st28{fill:#125A9E;}	.st29{fill:url(#SVGID_00000179603708525997226420000011686759133064855203_);}	.st30{fill:url(#SVGID_00000178907202741923972970000004185185946112322996_);}	.st31{fill:#0D82CA;}	.st32{fill:url(#SVGID_00000112604791659338188880000012871543784934415245_);}	.st33{fill:#127BCA;}	.st34{fill:url(#SVGID_00000180339441190839885590000013326153678266623897_);}	.st35{fill:url(#SVGID_00000171680075068993570260000013100683551034067647_);}	.st36{fill:#05A1E6;}	.st37{fill:url(#SVGID_00000151535015287337257440000009140865768493178278_);}	.st38{fill:url(#SVGID_00000127020563640663937730000005226073057760300699_);}	.st39{fill:url(#SVGID_00000165215110555038619160000017134130330588043669_);}	.st40{fill:#079AE1;}	.st41{fill:#1E5CB3;}	.st42{fill:#1D60B5;}	.st43{fill:#175FAB;}	.st44{fill:url(#SVGID_00000075130809057647324860000002518453525341742780_);}	.st45{fill:#7DCBEC;}	.st46{fill:#5EC5ED;}	.st47{fill:url(#SVGID_00000083068033774956740510000013130857882378548900_);}	.st48{fill:url(#SVGID_00000076589674504103324150000006063361533619589770_);}	.st49{fill:url(#SVGID_00000032610280209665222280000003998921317952296879_);}	.st50{clip-path:url(#SVGID_00000113316420539282194700000018255834472163818930_);}	.st51{clip-path:url(#SVGID_00000101100746425615268630000008816780607040429997_);}	.st52{fill:#007ACC;}	.st53{fill:#E44D26;}	.st54{fill:#F16529;}	.st55{fill:#EBEBEB;}	.st56{fill:url(#SVGID_00000087385262259788847040000011337010814906194104_);}	.st57{fill:#000004;}	.st58{fill:#95BF47;}	.st59{fill:#5E8E3E;}	.st60{fill:#00749A;}	.st61{fill:#F2F2F2;}	.st62{fill:#E7E7E7;}	.st63{fill:#EFEFEF;}	.st64{fill:url(#SVGID_00000006676165507575591280000014552059345171267214_);fill-opacity:0.8;}	.st65{fill:url(#SVGID_00000024693754577338356640000013759852330718451643_);fill-opacity:0.8;}	.st66{fill:#E9E9E9;}	.st67{fill:#F0F0F0;}	.st68{fill:url(#SVGID_00000062908490777656753700000002593936392121349549_);}	.st69{fill:url(#SVGID_00000180342074879769363130000017821933414654752958_);}	.st70{fill:#E8E8E8;}	.st71{fill:url(#SVGID_00000061468185641752809710000000809950692244139142_);}	.st72{fill:#EEEEEE;}	.st73{fill:#EAEAEA;}	.st74{fill:url(#SVGID_00000130608965640320645510000011815596047289713305_);}	.st75{fill:url(#SVGID_00000058581939433170461160000017774345668826863021_);}	.st76{fill:url(#SVGID_00000165228783834756028090000005440454140897262480_);}	.st77{fill:url(#SVGID_00000035489888464270470010000003632343416586326693_);}	.st78{fill:url(#SVGID_00000176004248286081222800000008490448977893323417_);}	.st79{fill:url(#SVGID_00000124150428182086885930000017448688132953798023_);}	.st80{fill:url(#SVGID_00000100359484501583813450000006861892245606664104_);}	.st81{fill:url(#SVGID_00000163068492766388655070000005661944920001704850_);}	.st82{fill:url(#SVGID_00000130630705959075118770000006922062025197442713_);}	.st83{fill:url(#SVGID_00000018950857575113001560000004749314407218989491_);}	.st84{fill:url(#SVGID_00000179641737270012171410000000829977582442136710_);}	.st85{fill:#EDEDED;}	.st86{fill:url(#SVGID_00000145029408263401397240000010724269270786891956_);}	.st87{fill:#F6F6F6;}	.st88{fill:#F4F4F4;}	.st89{fill:url(#SVGID_00000155123930465712744890000006355919232820002732_);}	.st90{fill:url(#SVGID_00000064356282130912178650000005315694048288237983_);}	.st91{fill:url(#SVGID_00000127002178449675093050000010244280381399677865_);}	.st92{fill:#464342;}</style><g>	<path class="st0" d="M45.2,21.6c-0.6-0.2-1.1-0.4-1.7-0.6c0.1-0.4,0.2-0.8,0.3-1.2c1.3-6.4,0.5-11.5-2.5-13.2  c-2.8-1.6-7.4,0.1-12,4.1c-0.4,0.4-0.9,0.8-1.3,1.2c-0.3-0.3-0.6-0.6-0.9-0.8c-4.8-4.3-9.7-6.1-12.6-4.4c-2.8,1.6-3.6,6.4-2.4,12.5  c0.1,0.6,0.2,1.2,0.4,1.8c-0.7,0.2-1.3,0.4-2,0.6C4.6,23.6,1,26.7,1,30c0,3.3,3.9,6.7,9.8,8.7c0.5,0.2,0.9,0.3,1.4,0.4  c-0.2,0.6-0.3,1.3-0.4,1.9c-1.1,5.9-0.2,10.6,2.6,12.2c2.9,1.7,7.7-0.1,12.4-4.2c0.4-0.3,0.8-0.7,1.1-1c0.5,0.5,1,0.9,1.4,1.3  c4.6,3.9,9.1,5.5,11.9,3.9c2.9-1.7,3.8-6.7,2.6-12.9c-0.1-0.5-0.2-0.9-0.3-1.4c0.3-0.1,0.7-0.2,1-0.3c6.2-2,10.2-5.3,10.2-8.7  C54.7,26.7,51,23.6,45.2,21.6L45.2,21.6z M43.8,36.5c-0.3,0.1-0.6,0.2-0.9,0.3c-0.7-2.1-1.6-4.4-2.7-6.8c1.1-2.3,1.9-4.6,2.6-6.7  c0.6,0.2,1.1,0.3,1.6,0.5c5,1.7,8,4.2,8,6.2C52.4,32,49.1,34.7,43.8,36.5z M41.6,40.9c0.5,2.7,0.6,5.2,0.3,7.1  c-0.3,1.7-1,2.9-1.8,3.3c-1.7,1-5.3-0.3-9.2-3.7c-0.4-0.4-0.9-0.8-1.3-1.2c1.5-1.7,3-3.6,4.5-5.7c2.6-0.2,5.1-0.6,7.3-1.1  C41.4,40,41.5,40.5,41.6,40.9z M19.3,51.1c-1.7,0.6-3,0.6-3.8,0.1c-1.7-1-2.4-4.8-1.4-9.8c0.1-0.6,0.2-1.2,0.4-1.8  c2.2,0.5,4.6,0.8,7.2,1.1c1.5,2.1,3.1,4,4.6,5.7c-0.3,0.3-0.7,0.6-1,0.9C23.2,49.2,21.1,50.5,19.3,51.1z M11.5,36.5  c-2.6-0.9-4.8-2.1-6.3-3.3c-1.3-1.1-2-2.3-2-3.2c0-2,2.9-4.4,7.8-6.1c0.6-0.2,1.2-0.4,1.8-0.6c0.7,2.2,1.6,4.5,2.6,6.8  c-1.1,2.4-2,4.7-2.7,6.9C12.4,36.8,12,36.6,11.5,36.5L11.5,36.5z M14.1,18.8c-1-5.2-0.3-9.1,1.3-10c1.8-1,5.8,0.4,10,4.2  c0.3,0.2,0.5,0.5,0.8,0.7c-1.6,1.7-3.1,3.6-4.6,5.7c-2.5,0.2-4.9,0.6-7.2,1.1C14.4,19.9,14.2,19.3,14.1,18.8z M37.3,24.5  c-0.5-0.9-1.1-1.8-1.6-2.7c1.7,0.2,3.4,0.5,4.9,0.9c-0.5,1.5-1,3-1.7,4.6C38.4,26.4,37.9,25.5,37.3,24.5z M27.9,15.3  c1.1,1.1,2.1,2.4,3.2,3.8c-1.1-0.1-2.1-0.1-3.2-0.1c-1.1,0-2.1,0-3.2,0.1C25.7,17.8,26.8,16.5,27.9,15.3z M18.3,24.5  c-0.5,0.9-1,1.9-1.5,2.8c-0.7-1.6-1.2-3.1-1.7-4.6c1.5-0.3,3.2-0.6,4.9-0.8C19.4,22.7,18.9,23.6,18.3,24.5L18.3,24.5z M20,38.3  c-1.8-0.2-3.4-0.5-4.9-0.8c0.5-1.5,1.1-3.1,1.7-4.8c0.5,0.9,1,1.9,1.5,2.8l0,0C18.9,36.5,19.5,37.4,20,38.3L20,38.3z M27.9,44.8  c-1.1-1.2-2.2-2.5-3.2-3.9c1,0,2.1,0.1,3.2,0.1c1.1,0,2.2,0,3.2-0.1C30,42.3,29,43.6,27.9,44.8z M38.9,32.6  c0.7,1.6,1.3,3.2,1.8,4.7c-1.6,0.4-3.2,0.6-5,0.9c0.6-0.9,1.1-1.8,1.7-2.7C37.9,34.5,38.4,33.6,38.9,32.6L38.9,32.6z M35.3,34.3  c-0.8,1.5-1.7,2.9-2.6,4.2c-1.6,0.1-3.2,0.2-4.9,0.2c-1.7,0-3.3-0.1-4.9-0.1c-0.9-1.3-1.8-2.7-2.6-4.2l0,0  c-0.8-1.4-1.6-2.9-2.3-4.3c0.7-1.4,1.5-2.9,2.3-4.3l0,0c0.8-1.4,1.7-2.8,2.6-4.1c1.6-0.1,3.2-0.2,4.9-0.2c1.7,0,3.3,0.1,4.9,0.2  c0.9,1.3,1.8,2.7,2.6,4.1c0.8,1.5,1.6,2.9,2.3,4.3C36.9,31.4,36.2,32.9,35.3,34.3L35.3,34.3z M40.1,8.7c1.8,1,2.5,5.2,1.4,10.7  c-0.1,0.4-0.2,0.7-0.2,1.1C39,20,36.5,19.6,34,19.3c-1.5-2.1-3-4-4.6-5.7c0.4-0.4,0.8-0.8,1.2-1.1C34.7,9.1,38.4,7.7,40.1,8.7  L40.1,8.7z M27.8,25.2c2.7,0,4.8,2.1,4.8,4.8c0,2.6-2.2,4.8-4.8,4.8S23,32.6,23,30S25.2,25.2,27.8,25.2z"></path></g><g>	<polygon class="st0" points="87.1,1.3 58.5,30 67.4,38.8 104.8,1.3  "></polygon>	<polygon class="st0" points="86.9,27.7 71.6,43.1 80.5,52.1 89.3,43.2 104.8,27.7  "></polygon>	<polygon class="st62" points="80.5,52.1 87.2,58.8 104.8,58.8 89.3,43.2  "></polygon>	<polygon class="st63" points="71.5,43.2 80.4,34.3 89.3,43.2 80.5,52.1  "></polygon>			<linearGradient id="SVGID_1_" gradientUnits="userSpaceOnUse" x1="944.4618" y1="-7376.9004" x2="944.5924" y2="-7376.8535" gradientTransform="matrix(44.59 0 0 44.59 -42032.9023 328982.625)">		<stop offset="0" style="stop-color:#000000"></stop>		<stop offset="1" style="stop-color:#000000;stop-opacity:0"></stop>	</linearGradient>	<polygon class="st6" points="80.5,52.1 87.9,49.6 88.6,44  "></polygon></g></svg>