<svg xmlns="http://www.w3.org/2000/svg" id="Layer_1" data-name="Layer 1" viewBox="0 0 60 60"><defs><style>      .cls-1 {        fill: #fff;      }    </style></defs><path class="cls-1" d="m5,5v50h50V5H5Zm27.21,39c0,4.87-2.85,7.08-7.01,7.08-3.77,0-5.95-1.95-7.06-4.3l3.83-2.31c.74,1.31,1.41,2.42,3.02,2.42s2.52-.61,2.52-2.95v-15.98h4.7v16.04Zm11.11,7.07c-4.37.01-7.19-2.07-8.56-4.79l3.83-2.21c1.01,1.64,2.32,2.85,4.63,2.85,1.95,0,3.19-.97,3.19-2.32,0-1.61-1.28-2.18-3.42-3.12l-1.17-.5c-3.39-1.44-5.64-3.25-5.64-7.08,0-3.52,2.68-6.21,6.88-6.21,2.99,0,5.13,1.04,6.68,3.76l-3.66,2.35c-.8-1.44-1.68-2.01-3.02-2.01s-2.25.87-2.25,2.01c0,1.41.87,1.98,2.89,2.85l1.17.5c3.99,1.71,6.24,3.46,6.24,7.38,0,4.23-3.32,6.54-7.79,6.54Z"></path></svg>