<svg xmlns="http://www.w3.org/2000/svg" id="Layer_1" data-name="Layer 1" viewBox="0 0 60 60"><defs><style>      .cls-1 {        fill: #fff;      }    </style></defs><g id="change1_1" data-name="change1 1"><path class="cls-1" d="m35.98,46.77c-.27,0-.52-.14-.65-.37l-5.74-9.58-10.74,2.92c-.34.08-.68-.08-.85-.38L5.45,15.78c-.2-.37-.06-.83.31-1.03.08-.04.17-.07.26-.08l10.65-1.43c.3-.04.6.1.75.36l12.86,21.46,14.94-4.06-4.98-7.04c-.25-.34-.17-.81.17-1.06.08-.05.16-.1.25-.12l6.99-1.65c.28-.07.58.03.77.26l6.05,7.55c.26.33.21.8-.12,1.07-.08.07-.18.11-.28.14l-6.36,1.73,5.56,7.84c.24.34.16.81-.18,1.06-.06.04-.12.08-.19.1l-16.71,5.84s-.13.04-.21.05h0Zm-4.87-10.36l5.2,8.68,15.16-5.31-5.3-7.47-15.06,4.1ZM7.31,16.02l11.74,22.1,9.75-2.64-12.41-20.66-9.08,1.2Zm34.84,7.98l4.66,6.57,5.8-1.58-5.04-6.28-5.42,1.29Z"></path></g></svg>