<svg xmlns="http://www.w3.org/2000/svg" id="Layer_1" data-name="Layer 1" viewBox="0 0 72.35 60"><defs><style>      .cls-1 {        fill: #fff;      }    </style></defs><path class="cls-1" d="m51.69,32.58h-2.51l1.55-7.97h2.83c1.58,0,2.63.28,3.16.87.54.6.65,1.59.37,3-.28,1.47-.85,2.54-1.67,3.17-.82.62-2.06.93-3.73.93Z"></path><path class="cls-1" d="m36.18,10.98C16.2,10.98,0,19.5,0,30s16.2,19.02,36.18,19.02,36.17-8.52,36.17-19.02S56.16,10.98,36.18,10.98Zm7.26,29.68l3.7-19.08h8c2.4,0,4.16.63,5.26,1.9,1.1,1.27,1.44,3.02.99,5.28-.17.94-.48,1.78-.91,2.55-.42.76-.99,1.47-1.69,2.12-.85.79-1.75,1.32-2.77,1.66s-2.29.51-3.87.51h-3.57l-.98,5.06h-4.16Zm-14.47-11.9c-.17.94-.48,1.78-.91,2.55-.42.76-.98,1.47-1.69,2.12-.85.79-1.75,1.32-2.77,1.66s-2.29.51-3.87.51h-3.56l-.99,5.06h-4.16l3.7-19.08h8c2.41,0,4.16.63,5.26,1.9,1.1,1.27,1.44,3.02.99,5.28Zm3.48,6.84h-4.13l3.7-19.08h4.13l-.99,5.06h3.67c2.32,0,3.9.4,4.78,1.22.88.82,1.13,2.12.79,3.93l-1.72,8.87h-4.19l1.64-8.45c.2-.96.12-1.61-.19-1.95-.32-.34-1.02-.54-2.07-.54h-3.3l-2.12,10.94Zm-11.31-10.99h-2.83l-1.55,7.97h2.51c1.67,0,2.92-.31,3.74-.93.82-.63,1.38-1.7,1.66-3.17.29-1.41.17-2.4-.36-3-.54-.59-1.59-.87-3.17-.87Z"></path><path class="cls-1" d="m56.72,25.48c.54.6.65,1.59.37,3-.28,1.47-.85,2.54-1.67,3.17-.82.62-2.06.93-3.73.93h-2.51l1.55-7.97h2.83c1.58,0,2.63.28,3.16.87Z"></path></svg>