<svg xmlns="http://www.w3.org/2000/svg" id="Layer_1" data-name="Layer 1" viewBox="0 0 60 60"><defs><style>      .cls-1 {        fill: #fff;      }    </style></defs><path class="cls-1" d="m29.79,1.25c-14.67,0-13.76,6.36-13.76,6.36v6.59h14.01v1.98H10.48S1.1,15.11,1.1,29.92s8.2,14.28,8.2,14.28h4.89v-6.87s-.27-8.2,8.07-8.2h13.89s7.8.13,7.8-7.54v-12.68s1.18-7.66-14.15-7.66h0Zm-7.72,4.44c1.4,0,2.52,1.12,2.52,2.52s-1.12,2.52-2.52,2.52-2.52-1.12-2.52-2.52,1.13-2.52,2.52-2.52Z"></path><path class="cls-1" d="m30.21,58.75c14.67,0,13.76-6.37,13.76-6.37v-6.59h-14.01v-1.98h19.56s9.39,1.06,9.39-13.75-8.2-14.28-8.2-14.28h-4.89v6.87s.27,8.2-8.07,8.2h-13.9s-7.8-.13-7.8,7.54v12.68s-1.17,7.68,14.16,7.68h0Zm7.72-4.43c-1.39,0-2.52-1.13-2.52-2.52s1.12-2.52,2.52-2.52,2.52,1.12,2.52,2.52-1.12,2.52-2.52,2.52Z"></path></svg>