<svg xmlns="http://www.w3.org/2000/svg" id="Layer_1" data-name="Layer 1" viewBox="0 0 60 60"><defs><style>      .cls-1 {        fill: #fff;      }    </style></defs><path class="cls-1" d="m47.31,21.6c-.56-.19-1.13-.37-1.73-.55.1-.4.19-.79.27-1.18,1.31-6.36.45-11.48-2.47-13.17-2.81-1.62-7.39.07-12.02,4.1-.45.39-.89.8-1.34,1.23-.3-.28-.59-.56-.89-.82-4.85-4.31-9.72-6.13-12.64-4.44-2.8,1.62-3.63,6.44-2.45,12.46.11.58.25,1.18.4,1.78-.69.2-1.35.4-1.99.63-5.69,1.98-9.33,5.09-9.33,8.32s3.9,6.67,9.83,8.7c.47.16.95.31,1.45.45-.16.65-.3,1.29-.42,1.92-1.12,5.92-.25,10.62,2.55,12.23,2.89,1.67,7.73-.05,12.45-4.17.37-.33.75-.67,1.12-1.03.49.47.97.91,1.45,1.32,4.57,3.93,9.08,5.52,11.87,3.9,2.88-1.67,3.82-6.72,2.6-12.87-.09-.47-.2-.95-.32-1.44.34-.1.67-.21,1-.31,6.16-2.04,10.17-5.34,10.17-8.72,0-3.21-3.76-6.34-9.56-8.34h0Zm-1.34,14.91c-.29.1-.6.19-.9.28-.68-2.15-1.6-4.44-2.72-6.81,1.07-2.31,1.95-4.57,2.62-6.71.55.16,1.08.33,1.6.5,4.97,1.71,8.01,4.24,8.01,6.2,0,2.07-3.29,4.77-8.61,6.54Zm-2.21,4.37c.54,2.72.62,5.17.26,7.1-.32,1.73-.96,2.88-1.76,3.34-1.69.98-5.32-.29-9.22-3.66-.45-.39-.9-.8-1.35-1.23,1.51-1.66,3.03-3.58,4.51-5.72,2.6-.23,5.05-.61,7.28-1.12.1.43.2.87.28,1.29Zm-22.32,10.26c-1.66.59-2.97.6-3.77.14-1.7-.98-2.4-4.75-1.44-9.82.11-.58.24-1.18.39-1.78,2.2.49,4.64.84,7.24,1.05,1.49,2.09,3.05,4.02,4.61,5.7-.34.33-.68.65-1.02.94-2.08,1.83-4.17,3.12-6.01,3.77Zm-7.76-14.65c-2.62-.9-4.79-2.06-6.27-3.33-1.33-1.14-2.01-2.27-2.01-3.19,0-1.96,2.92-4.45,7.79-6.15.59-.21,1.21-.4,1.85-.58.67,2.19,1.56,4.48,2.62,6.79-1.08,2.35-1.97,4.67-2.65,6.89-.46-.14-.9-.28-1.33-.43h0Zm2.6-17.69c-1.01-5.16-.34-9.06,1.35-10.03,1.8-1.04,5.78.44,9.97,4.16.27.24.54.49.81.74-1.56,1.68-3.11,3.59-4.58,5.67-2.53.23-4.95.61-7.17,1.11-.15-.56-.27-1.11-.38-1.65Zm23.19,5.73c-.53-.92-1.08-1.82-1.63-2.69,1.72.22,3.36.5,4.9.86-.46,1.48-1.04,3.04-1.72,4.63-.49-.93-1.01-1.87-1.55-2.8Zm-9.46-9.21c1.06,1.15,2.12,2.43,3.16,3.82-1.05-.05-2.12-.08-3.19-.08s-2.12.03-3.16.07c1.05-1.37,2.12-2.65,3.19-3.81Zm-9.51,9.22c-.53.92-1.04,1.85-1.52,2.78-.67-1.59-1.24-3.15-1.71-4.65,1.53-.34,3.17-.62,4.87-.84-.56.88-1.11,1.79-1.64,2.71h0Zm1.69,13.72c-1.76-.2-3.42-.46-4.95-.8.47-1.53,1.06-3.12,1.74-4.75.48.93.99,1.86,1.52,2.78h0c.55.96,1.11,1.88,1.69,2.77h0Zm7.88,6.52c-1.09-1.17-2.17-2.47-3.23-3.87,1.03.04,2.08.06,3.15.06s2.18-.03,3.24-.07c-1.05,1.42-2.1,2.72-3.16,3.88Zm10.97-12.14c.72,1.64,1.32,3.22,1.81,4.73-1.56.35-3.24.64-5.01.85.56-.88,1.11-1.8,1.65-2.74.54-.94,1.05-1.89,1.55-2.84h0Zm-3.55,1.7c-.84,1.46-1.7,2.85-2.58,4.16-1.59.11-3.24.17-4.92.17s-3.3-.05-4.87-.15c-.91-1.33-1.79-2.72-2.63-4.17h0c-.83-1.44-1.6-2.89-2.29-4.33.69-1.44,1.46-2.9,2.29-4.33h0c.83-1.44,1.7-2.83,2.61-4.15,1.6-.12,3.24-.18,4.89-.18s3.31.06,4.9.19c.89,1.31,1.76,2.7,2.59,4.14.84,1.46,1.62,2.9,2.32,4.31-.7,1.43-1.47,2.89-2.31,4.34h0Zm4.73-25.64c1.8,1.04,2.5,5.22,1.37,10.71-.07.35-.15.71-.24,1.07-2.23-.51-4.65-.9-7.19-1.14-1.48-2.1-3.01-4.02-4.55-5.67.41-.4.83-.78,1.24-1.13,3.98-3.45,7.69-4.82,9.37-3.84h0Zm-12.23,16.47c2.65,0,4.8,2.15,4.8,4.8s-2.15,4.8-4.8,4.8-4.8-2.15-4.8-4.8,2.15-4.8,4.8-4.8Z"></path></svg>