<svg xmlns="http://www.w3.org/2000/svg" id="Layer_1" data-name="Layer 1" viewBox="0 0 60 60"><defs><style>      .cls-1 {        fill: #ededed;      }      .cls-2 {        fill: #fff;      }    </style></defs><path class="cls-2" d="m47.55,13.81h0c-.04-.24-.23-.42-.47-.44-.19-.03-4.29-.32-4.29-.32l-3.13-3.13c-.28-.31-.9-.22-1.14-.15-.03,0-.63.18-1.6.5-.94-2.73-2.61-5.24-5.55-5.24h-.26c-.84-1.09-1.87-1.59-2.75-1.59-6.85.03-10.12,8.58-11.15,12.95l-4.79,1.46c-1.47.47-1.53.51-1.72,1.91l-4.04,31.14,30.27,5.67,16.41-3.54s-5.76-38.93-5.79-39.22Zm-17.34-6.58c.5,1.47.74,3.03.68,4.59v.28l-5.29,1.64c1.03-3.86,2.94-5.78,4.6-6.5h0Zm-2.04-1.92c.32.01.62.11.88.29-2.21,1.02-4.54,3.62-5.54,8.82l-4.19,1.28c1.18-3.94,3.94-10.39,8.85-10.39Zm1.16,23.13c-1.23-.6-2.58-.91-3.95-.94-3.19,0-3.35,2-3.35,2.51,0,2.73,7.17,3.78,7.17,10.23,0,5.07-3.22,8.33-7.54,8.33-5.2,0-7.86-3.22-7.86-3.22l1.38-4.61s2.72,2.35,5.04,2.35c1.13.04,2.09-.84,2.13-1.97v-.1c0-3.6-5.88-3.76-5.88-9.64,0-4.95,3.56-9.77,10.73-9.77,2.67.04,4.02.74,4.16.82l-2.03,6.01Zm3.35-16.87v-.56c.03-1.41-.18-2.81-.63-4.15,1.54.23,2.57,1.95,3.19,3.93-.76.25-1.64.5-2.56.78Z"></path><path class="cls-1" d="m47.08,13.36c-.19-.03-4.29-.31-4.29-.31l-3.13-3.13c-.12-.12-.27-.19-.44-.19l-2.28,46.83,16.41-3.54-5.79-39.2c-.04-.24-.23-.43-.47-.47h0Z"></path></svg>