<svg xmlns="http://www.w3.org/2000/svg" xmlns:xlink="http://www.w3.org/1999/xlink" id="Layer_1" data-name="Layer 1" viewBox="0 0 99.91 60"><defs><style>      .cls-1 {        fill: url(#linear-gradient);      }      .cls-2 {        fill: #f6f6f6;      }      .cls-3 {        fill: #eee;      }      .cls-4 {        fill: #ebebeb;      }      .cls-5 {        fill: #eaeaea;      }      .cls-6 {        fill: #e9e9e9;      }      .cls-7 {        fill: #f4f4f4;      }      .cls-8 {        fill: #ededed;      }      .cls-9 {        fill: #e8e8e8;      }      .cls-10 {        fill: url(#linear-gradient-8);      }      .cls-11 {        fill: url(#linear-gradient-9);      }      .cls-12 {        fill: url(#linear-gradient-3);      }      .cls-13 {        fill: url(#linear-gradient-4);      }      .cls-14 {        fill: url(#linear-gradient-2);      }      .cls-15 {        fill: url(#linear-gradient-6);      }      .cls-16 {        fill: url(#linear-gradient-7);      }      .cls-17 {        fill: url(#linear-gradient-5);      }      .cls-18 {        fill: url(#linear-gradient-14);      }      .cls-19 {        fill: url(#linear-gradient-18);      }      .cls-20 {        fill: url(#linear-gradient-15);      }      .cls-21 {        fill: url(#linear-gradient-16);      }      .cls-22 {        fill: url(#linear-gradient-17);      }      .cls-23 {        fill: url(#linear-gradient-13);      }      .cls-24 {        fill: url(#linear-gradient-12);      }      .cls-25 {        fill: url(#linear-gradient-10);      }      .cls-26 {        fill: url(#linear-gradient-11);      }    </style><linearGradient id="linear-gradient" x1="968.45" y1="-7618.27" x2="968.45" y2="-7617.68" gradientTransform="translate(-44128.4 619642.59) scale(45.61 81.33)" gradientUnits="userSpaceOnUse"><stop offset="0" stop-color="#ededed"></stop><stop offset=".35" stop-color="#f5f5f5"></stop><stop offset=".85" stop-color="#ebebeb"></stop><stop offset="1" stop-color="#ebebeb"></stop></linearGradient><linearGradient id="linear-gradient-2" x1="969.49" y1="-7618.67" x2="969.49" y2="-7618.09" gradientTransform="translate(-46362.05 635467.82) scale(47.87 83.41)" gradientUnits="userSpaceOnUse"><stop offset="0" stop-color="#eaeaea"></stop><stop offset=".36" stop-color="#f1f1f1"></stop><stop offset=".85" stop-color="#efefef"></stop><stop offset="1" stop-color="#efefef"></stop></linearGradient><linearGradient id="linear-gradient-3" x1="967.97" y1="-7618.29" x2="967.97" y2="-7618.75" gradientTransform="translate(-43939.11 643793.02) scale(45.45 84.5)" gradientUnits="userSpaceOnUse"><stop offset="0" stop-color="#e9e9e9"></stop><stop offset=".5" stop-color="#f2f2f2"></stop><stop offset="1" stop-color="#f2f2f2" stop-opacity=".42"></stop></linearGradient><linearGradient id="linear-gradient-4" x1="967.83" y1="-7619.2" x2="967.83" y2="-7618.62" gradientTransform="translate(-43509.26 659816.16) scale(45.01 86.6)" gradientUnits="userSpaceOnUse"><stop offset="0" stop-color="#eaeaea"></stop><stop offset=".4" stop-color="#f1f1f1"></stop><stop offset=".85" stop-color="#ededed"></stop><stop offset="1" stop-color="#ededed"></stop></linearGradient><linearGradient id="linear-gradient-5" x1="973.39" y1="-7620.18" x2="973.39" y2="-7619.59" gradientTransform="translate(-56751.74 701685.87) scale(58.35 92.08)" gradientUnits="userSpaceOnUse"><stop offset="0" stop-color="#e6e6e6"></stop><stop offset=".39" stop-color="#ececec"></stop><stop offset=".78" stop-color="#e7e7e7"></stop><stop offset="1" stop-color="#e7e7e7"></stop></linearGradient><linearGradient id="linear-gradient-6" x1="937.91" y1="-7590.09" x2="938.3" y2="-7590.09" gradientTransform="translate(-18185.26 234722.05) scale(19.42 30.92)" gradientUnits="userSpaceOnUse"><stop offset="0" stop-color="#f2f2f2" stop-opacity=".7"></stop><stop offset="1" stop-color="#efefef"></stop></linearGradient><linearGradient id="linear-gradient-7" x1="977.51" y1="-7620.71" x2="977.51" y2="-7621.1" gradientTransform="translate(-77285.51 752051.19) scale(79.15 98.68)" gradientUnits="userSpaceOnUse"><stop offset="0" stop-color="#e9e9e9"></stop><stop offset=".6" stop-color="#f4f4f4" stop-opacity=".55"></stop><stop offset="1" stop-color="#f4f4f4" stop-opacity=".24"></stop></linearGradient><linearGradient id="linear-gradient-8" x1="977.41" y1="-7620.97" x2="977.81" y2="-7620.97" gradientTransform="translate(-70395.38 755764.07) scale(72.02 99.17)" gradientUnits="userSpaceOnUse"><stop offset="0" stop-color="#eee" stop-opacity=".25"></stop><stop offset="1" stop-color="#eee"></stop></linearGradient><linearGradient id="linear-gradient-9" x1="970.96" y1="-7615.86" x2="970.96" y2="-7616.38" gradientTransform="translate(-47611.1 562276.29) scale(49.05 73.82)" gradientUnits="userSpaceOnUse"><stop offset="0" stop-color="#eee"></stop><stop offset="1" stop-color="#f0f0f0"></stop></linearGradient><linearGradient id="linear-gradient-10" x1="969.31" y1="-7610.89" x2="969.31" y2="-7611.55" gradientTransform="translate(-44186.48 434857.87) scale(45.6 57.13)" gradientUnits="userSpaceOnUse"><stop offset="0" stop-color="#eee"></stop><stop offset="1" stop-color="#eee" stop-opacity=".55"></stop></linearGradient><linearGradient id="linear-gradient-11" x1="972.2" y1="-7617.77" x2="972.2" y2="-7618.16" gradientTransform="translate(-51038.94 617812.8) scale(52.52 81.1)" gradientUnits="userSpaceOnUse"><stop offset="0" stop-color="#e8e8e8"></stop><stop offset=".5" stop-color="#eee"></stop><stop offset=".92" stop-color="#f5f5f5"></stop><stop offset="1" stop-color="#f5f5f5"></stop></linearGradient><linearGradient id="linear-gradient-12" x1="977.68" y1="-7620.78" x2="977.6" y2="-7621.12" gradientTransform="translate(-71033.71 754574.68) scale(72.68 99.01)" gradientUnits="userSpaceOnUse"><stop offset="0" stop-color="#e7e7e7"></stop><stop offset="1" stop-color="#ebebeb"></stop></linearGradient><linearGradient id="linear-gradient-13" x1="957.73" y1="-7610.54" x2="957.73" y2="-7610.85" gradientTransform="translate(-31306.85 435549.63) scale(32.77 57.23)" gradientUnits="userSpaceOnUse"><stop offset="0" stop-color="#eee"></stop><stop offset=".87" stop-color="#ededed"></stop><stop offset="1" stop-color="#ededed"></stop></linearGradient><linearGradient id="linear-gradient-14" x1="973.16" y1="-7620.76" x2="973.04" y2="-7620.32" gradientTransform="translate(-58566.26 734062.5) scale(60.27 96.32)" gradientUnits="userSpaceOnUse"><stop offset="0" stop-color="#f0f0f0" stop-opacity=".33"></stop><stop offset=".96" stop-color="#ececec"></stop><stop offset="1" stop-color="#ececec"></stop></linearGradient><linearGradient id="linear-gradient-15" x1="975.82" y1="-7621" x2="975.82" y2="-7620.6" gradientTransform="translate(-68500.77 747712.21) scale(70.28 98.11)" gradientUnits="userSpaceOnUse"><stop offset="0" stop-color="#ededed"></stop><stop offset=".5" stop-color="#ececec"></stop><stop offset="1" stop-color="#e7e7e7"></stop></linearGradient><linearGradient id="linear-gradient-16" x1="959.37" y1="-7962.73" x2="959.65" y2="-7963.61" gradientTransform="translate(-31113.59 -33826.05) scale(32.46 -4.25)" gradientUnits="userSpaceOnUse"><stop offset="0" stop-color="#f8f8f8"></stop><stop offset=".7" stop-color="#f3f3f3"></stop><stop offset="1" stop-color="#f3f3f3"></stop></linearGradient><linearGradient id="linear-gradient-17" x1="951.73" y1="-7821.36" x2="952" y2="-7820.92" gradientTransform="translate(-25160.35 -58522.12) scale(26.47 -7.48)" gradientUnits="userSpaceOnUse"><stop offset="0" stop-color="#f6f6f6"></stop><stop offset="1" stop-color="#f2f2f2"></stop></linearGradient><linearGradient id="linear-gradient-18" x1="970.41" y1="-7617.89" x2="970.41" y2="-7617.41" gradientTransform="translate(-50435.59 614280.69) scale(52.05 80.64)" gradientUnits="userSpaceOnUse"><stop offset="0" stop-color="#efefef"></stop><stop offset="1" stop-color="#f0f0f0" stop-opacity="0"></stop></linearGradient></defs><path class="cls-1" d="m34.71,18.22c3.6,11.01,4.97,30.65,15.49,30.65.8,0,1.61-.08,2.42-.23-9.57-2.23-10.71-21.66-16.55-31.72-.44.42-.9.85-1.36,1.3"></path><path class="cls-14" d="m36.08,16.92c5.84,10.06,6.98,29.49,16.55,31.72.75-.14,1.5-.35,2.26-.61-8.59-4.21-10.96-23.07-17.6-32.16-.4.34-.8.69-1.21,1.05"></path><path class="cls-9" d="m44.5,10.94c-.8,0-1.61.08-2.42.23-2.13.4-4.3,1.32-6.48,2.71.6.59,1.16,1.26,1.7,2,2.22-1.84,4.42-3.2,6.62-4.02.82-.31,1.65-.54,2.47-.69-.6-.16-1.23-.23-1.89-.23"></path><path class="cls-12" d="m61.6,44.15c.88-.7,1.76-1.47,2.64-2.31-3.66-10.96-4.97-30.88-15.57-30.88-.76,0-1.52.07-2.29.21,9.66,2.4,10.89,23.41,15.22,32.98"></path><path class="cls-3" d="m46.38,11.16c-.59-.15-1.22-.23-1.88-.23l4.17.02c-.76,0-1.52.07-2.29.21"></path><path class="cls-5" d="m61.41,46.48c-.42-.4-.81-.83-1.19-1.29-1.78,1.26-3.56,2.22-5.33,2.84.63.31,1.29.53,1.99.68.54.11,1.1.17,1.69.17,1.98,0,3.55-.23,4.88-.87-.74-.41-1.41-.92-2.04-1.53"></path><path class="cls-13" d="m43.91,11.85c8.65,4.52,9.4,25.01,16.3,33.33.46-.33.92-.67,1.38-1.04-4.32-9.57-5.55-30.58-15.21-32.98h0c-.82.16-1.65.39-2.47.69"></path><path class="cls-17" d="m37.29,15.87c6.63,9.08,9.01,27.95,17.6,32.16,1.77-.62,3.54-1.58,5.33-2.84-6.9-8.32-7.65-28.81-16.3-33.33h0c-2.2.81-4.41,2.17-6.63,4.01"></path><path class="cls-15" d="m30.47,17.96c-1.04,2.35-2.1,5.44-3.39,9.47,2.55-3.6,5.1-6.7,7.63-9.21-.35-1.07-.72-2.06-1.13-2.94-1.03.79-2.07,1.68-3.11,2.68"></path><path class="cls-4" d="m34.51,14.6c-.31.22-.61.44-.92.68.4.88.78,1.87,1.12,2.94.46-.45.92-.89,1.37-1.3-.49-.84-1.01-1.62-1.57-2.32"></path><path class="cls-9" d="m35.6,13.88c-.36.23-.72.47-1.09.73.57.7,1.09,1.47,1.58,2.32.4-.36.81-.72,1.21-1.05-.54-.74-1.11-1.42-1.7-2"></path><path class="cls-16" d="m94.6,10.1c-4.89,18.87-15.11,34.02-23.68,37.84h-.02c-.16.07-.31.14-.46.2-.02.01-.04.01-.06.02-.05.02-.09.03-.13.05-.02.01-.04.02-.06.02-.07.03-.15.05-.22.08-.03.01-.06.02-.09.03-.03.01-.07.02-.11.03-.03.01-.07.02-.1.04-.03.01-.06.02-.09.03-.06.02-.12.03-.18.06-.03,0-.05.01-.08.02-.04.01-.08.02-.12.03-.03.01-.06.02-.09.02-.04.01-.09.02-.13.03-.06.01-.11.02-.17.04.39.14.79.22,1.23.22,8.12,0,16.31-14.56,29.87-38.77h-5.31Z"></path><path class="cls-10" d="m25.32,11.7s.01-.01.01-.01c.01,0,.02,0,.02-.01h.01s.09-.03.13-.05c.01,0,.02,0,.03-.01.01,0,.02-.01.03-.01.05-.02.1-.03.14-.05h.01c.11-.03.21-.07.31-.11.01,0,.03-.01.05-.01.04-.01.09-.03.13-.04.02-.01.04-.01.06-.02.05-.01.09-.03.13-.04.02,0,.04-.01.05-.01.15-.04.3-.08.45-.12.02,0,.04-.01.06-.01.04-.01.08-.02.13-.03.02-.01.04-.01.06-.02.04-.01.09-.01.13-.02h.03c.09-.02.18-.03.27-.05h.05s.08-.01.13-.02c.02,0,.05-.01.07-.01.04,0,.08-.01.12-.02.02,0,.04,0,.07-.01.09-.01.19-.02.29-.03-.28-.03-.57-.05-.86-.05C18.28,10.94,5.68,27.91,0,49.9h1.09c1.82-3.24,3.45-6.31,4.94-9.18,4-15.59,12.1-26.21,19.29-29.02"></path><path class="cls-4" d="m30.47,17.96c1.04-.99,2.08-1.88,3.12-2.68-.24-.52-.48-1-.74-1.43-.84,1.01-1.61,2.35-2.38,4.11"></path><path class="cls-4" d="m31.22,11.83c.6.5,1.13,1.19,1.62,2.02.15-.19.31-.36.47-.53-.68-.63-1.41-1.16-2.21-1.55.03.02.06.03.1.05h.02"></path><path class="cls-11" d="m6.05,40.7C14.39,24.63,18.34,14.45,25.32,11.7h0c-7.19,2.82-15.29,13.43-19.27,29"></path><path class="cls-4" d="m33.32,13.32c-.16.17-.32.34-.47.53.26.44.51.92.74,1.43.31-.24.62-.46.92-.68-.38-.46-.78-.9-1.19-1.28"></path><path class="cls-25" d="m9.84,49.81c-.05.01-.1.01-.15.02h-.03s-.09.02-.13.02h-.02c-.1.01-.21.01-.31.02h-.03c8.44-.24,12.3-4.46,14.22-10.59,1.46-4.65,2.65-8.56,3.7-11.85-3.54,4.98-7.09,10.91-10.66,17.56-1.73,3.19-4.35,4.53-6.59,4.82"></path><path class="cls-26" d="m9.84,49.81c2.25-.29,4.86-1.62,6.59-4.83,3.57-6.64,7.13-12.58,10.66-17.56,1.29-4.03,2.35-7.12,3.39-9.47-7.05,6.7-14.12,17.85-20.64,31.86"></path><path class="cls-3" d="m6.05,40.7c-1.49,2.88-3.12,5.94-4.94,9.18h3.18c.42-3.21,1.02-6.28,1.76-9.18"></path><path class="cls-24" d="m28.02,11.01s-.05.01-.07.01c-.04.01-.08.01-.12.02-.02,0-.05,0-.07.01-.04.01-.08.01-.13.02-.02,0-.04,0-.05.01-.09.02-.18.03-.27.05h-.03c-.05.01-.09.02-.13.03-.02.01-.04.01-.07.02-.04.01-.09.02-.13.03-.02.01-.04.01-.06.01-.15.04-.3.07-.45.12-.02,0-.03.01-.05.02-.04.01-.09.03-.14.04-.02.01-.04.01-.06.02-.04.01-.09.03-.13.04-.02,0-.03.01-.05.01-.1.04-.2.08-.31.11-.05.01-.09.03-.14.05-.02.01-.04.02-.06.02-.05.01-.09.03-.13.05-.02.01-.03.01-.04.02-6.98,2.75-10.93,12.93-19.27,29-.74,2.9-1.34,5.96-1.76,9.18h.45c1.26,0,1.61-.02,3.06-.02h1.4c.1-.01.2-.01.31-.02h.02s.09-.01.13-.01h.03c.05,0,.1-.01.15-.02,6.52-14.01,13.59-25.15,20.63-31.85.77-1.75,1.54-3.09,2.37-4.11h0c-.49-.83-1.02-1.52-1.62-2.02,0,0-.02,0-.02-.01-.03-.01-.07-.03-.1-.05s-.06-.03-.1-.05c-.03-.01-.07-.03-.1-.05-.04-.01-.08-.03-.11-.05-.03-.01-.06-.03-.09-.04-.06-.02-.13-.05-.18-.08-.03-.01-.05-.02-.08-.03-.04-.02-.09-.04-.14-.06-.02-.01-.05-.02-.07-.02-.07-.02-.13-.04-.19-.07h-.02c-.07-.02-.15-.04-.22-.06-.02-.01-.03-.01-.05-.02-.07-.02-.12-.04-.19-.05-.02,0-.03-.01-.04-.01-.15-.04-.31-.07-.46-.1-.02,0-.03-.01-.05-.01-.07-.01-.13-.02-.2-.03-.02-.01-.03-.01-.04-.01-.08-.01-.16-.02-.24-.03h-.04c-.06-.01-.12-.01-.18-.02-.1.01-.2.02-.29.03"></path><path class="cls-23" d="m75.49,20.54c-1.6,5.14-2.9,9.38-4.03,12.87,4.4-6.06,8.74-13.68,12.87-22.48h0c-4.82,1.52-7.39,4.98-8.84,9.61"></path><path class="cls-18" d="m71.59,47.62c-.23.11-.45.22-.67.32,8.56-3.82,18.78-18.97,23.68-37.84h-.99c-11.25,20.08-14.86,33.52-22.02,37.52"></path><path class="cls-8" d="m66,45.93c1.86-2.27,3.38-6.14,5.45-12.52-2.39,3.28-4.8,6.11-7.2,8.41t-.01.02c.52,1.58,1.09,2.97,1.76,4.09"></path><path class="cls-5" d="m66,45.93c-.64.77-1.31,1.36-2.05,1.8-.17.1-.33.18-.5.27.79.43,1.65.71,2.62.82.14.01.28.03.43.04h.02c.07,0,.13,0,.2.01h.7s.05,0,.08-.01c.05,0,.1,0,.15-.01h.08c.05,0,.11-.01.17-.02h.01s.04-.01.05-.01c.06-.01.12-.02.18-.03h.05c.07-.01.13-.02.2-.03h.03c.14-.03.27-.05.4-.08-1.1-.41-2.03-1.36-2.83-2.72"></path><path class="cls-6" d="m50.21,48.87c.8,0,1.61-.08,2.42-.23.75-.14,1.5-.35,2.26-.61.63.31,1.29.54,1.98.68.54.11,1.1.17,1.69.17h-8.35Z"></path><path class="cls-6" d="m58.57,48.87c1.98,0,3.55-.23,4.88-.87.79.43,1.65.71,2.62.82.14.01.28.03.43.04h.02c.07,0,.13,0,.2.01h.24-8.39Z"></path><path class="cls-6" d="m66.97,48.87h.46s.05,0,.08-.01c.05,0,.11,0,.16-.01h.08c.06,0,.11-.01.17-.02h.01s.04-.01.05-.01c.06-.01.12-.02.18-.03.02,0,.04,0,.06-.01.07-.01.13-.02.2-.03h.04c.13-.03.27-.05.4-.08.39.14.79.22,1.23.22h-3.09s0-.02,0-.02h-.03Z"></path><path class="cls-6" d="m64.24,41.84h0c-.88.83-1.76,1.61-2.64,2.31-.46.36-.92.71-1.38,1.04.39.46.78.9,1.2,1.29.63.61,1.3,1.12,2.03,1.52.17-.08.33-.17.5-.27.75-.44,1.42-1.03,2.05-1.8-.66-1.12-1.23-2.51-1.76-4.09"></path><path class="cls-20" d="m90.47,10.1h-4.99c-.27.01-.53.02-.79.04-.12.26-.25.52-.37.79h0c-4.13,8.8-8.47,16.42-12.87,22.48-2.07,6.37-3.59,10.24-5.46,12.52.8,1.36,1.72,2.32,2.83,2.72.03-.01.05-.01.09-.02h.02s.04-.01.06-.01c.04-.01.09-.02.14-.03.03-.01.05-.01.08-.02.04-.01.08-.02.12-.03.03-.01.05-.02.08-.02.06-.02.12-.04.18-.06.03-.01.06-.02.09-.03.04-.01.07-.02.1-.04.04-.01.07-.02.11-.03.03-.01.06-.02.09-.03.07-.03.15-.05.22-.08.02,0,.04-.02.06-.02.04-.02.09-.03.13-.05.02-.01.04-.01.06-.02.15-.06.31-.13.46-.2h.02c.22-.1.45-.21.67-.32,7.16-4,10.78-17.44,22.02-37.52h0l-3.15-.02h0Z"></path><path class="cls-2" d="m28.31,10.98s.03,0,.05.01c.04,0,.09,0,.13.01h.04c.08.01.16.02.24.03.01,0,.03,0,.04.01.07.01.13.02.2.03.01,0,.03.01.05.01.15.03.31.06.46.1.01,0,.03.01.04.01.06.02.12.03.19.05.02,0,.03.01.05.02.08.02.15.04.22.06,0,0,.01,0,.02.01.06.02.13.04.19.07.03.01.05.02.07.02.05.02.09.04.14.06.03,0,.05.02.08.03.06.03.12.05.18.08.03.01.06.03.09.04.04.02.07.03.11.05.03.02.07.03.1.05s.07.03.1.05c.8.39,1.53.91,2.21,1.55.25-.26.51-.5.78-.71-1.49-1.05-3.17-1.65-5.11-1.65-.23,0-.45.01-.68.03"></path><path class="cls-7" d="m33.32,13.32c.42.39.81.82,1.19,1.29.36-.25.73-.5,1.09-.73-.48-.48-.98-.9-1.5-1.27-.27.21-.53.44-.78.71"></path><path class="cls-21" d="m28.31,10.98c.23-.02.45-.03.68-.03,1.94,0,3.63.6,5.11,1.65,1.57-1.24,3.46-1.67,6.1-1.67h-12.75c.29.01.58.02.86.05"></path><path class="cls-22" d="m40.2,10.94c-2.63,0-4.53.43-6.1,1.67.52.37,1.02.8,1.5,1.27,2.18-1.39,4.35-2.31,6.48-2.71.81-.15,1.62-.23,2.42-.23h-4.3Z"></path><path class="cls-19" d="m71.45,33.42c1.13-3.49,2.43-7.73,4.04-12.88,1.45-4.63,4.01-8.1,8.83-9.61.13-.26.25-.53.37-.79-7.86.47-11.53,4.47-13.37,10.38-3.23,10.33-5.19,17.03-7.08,21.29,2.41-2.29,4.82-5.11,7.21-8.39"></path><path d="m82.97,46.12h-.89v2.77h-.37v-2.77h-.89v-.33h2.15v.33h0Z"></path><path d="m86.62,48.89h-.36v-2.08c0-.16.01-.36.03-.6-.04.14-.07.24-.1.3l-1.05,2.38h-.18l-1.06-2.36c-.03-.07-.06-.17-.09-.32h-.02c.02.12.02.33.02.61v2.07h-.35v-3.1h.48l.95,2.16c.07.16.12.29.14.37h.02c.06-.17.11-.3.15-.38l.97-2.15h.46v3.1h0Z"></path></svg>