<svg xmlns="http://www.w3.org/2000/svg" id="Layer_1" data-name="Layer 1" viewBox="0 0 60 60"><defs><style>      .cls-1 {        fill: #fff;      }    </style></defs><path class="cls-1" d="m2.71,2.71v54.58h54.58V2.71H2.71Zm31.28,29.71h-7.1v20.18h-5.03v-20.18h-7.1l.02-2.24.02-2.22,9.54-.03c5.24,0,9.57.01,9.59.04.04.03.06,1.04.06,2.26v2.19Zm18.56,16.03c-.86,2.27-3.01,3.81-6.03,4.32-.94.17-3.16.14-4.16-.04-2.2-.39-4.27-1.47-5.56-2.89-.5-.56-1.48-2-1.42-2.11.03-.03.25-.17.51-.32.24-.14,1.16-.67,2.02-1.17l1.57-.91.33.49c.46.7,1.46,1.66,2.07,1.98,1.74.92,4.13.79,5.31-.27.5-.46.71-.93.71-1.63,0-.64-.08-.91-.41-1.39-.42-.61-1.29-1.12-3.75-2.18-2.81-1.22-4.03-1.97-5.13-3.17-.65-.69-1.25-1.8-1.5-2.73-.21-.77-.26-2.7-.1-3.48.58-2.72,2.64-4.62,5.6-5.18.96-.18,3.2-.11,4.14.12,1.39.35,2.44.96,3.41,1.97.5.54,1.25,1.51,1.31,1.75,0,.08-2.37,1.66-3.79,2.56-.06.03-.26-.2-.5-.54-.7-1.02-1.44-1.47-2.56-1.54-1.66-.12-2.72.75-2.71,2.2,0,.42.06.67.23,1.02.37.75,1.04,1.2,3.16,2.12,3.91,1.68,5.58,2.79,6.62,4.37,1.16,1.76,1.42,4.56.63,6.65Z"></path></svg>