<svg xmlns="http://www.w3.org/2000/svg" id="Layer_1" data-name="Layer 1" viewBox="0 0 60 60"><defs><style>      .cls-1 {        fill: #fff;      }    </style></defs><path class="cls-1" d="m4.94,30c0,9.92,5.76,18.49,14.12,22.55L7.11,19.8c-1.39,3.12-2.17,6.56-2.17,10.2Z"></path><path class="cls-1" d="m46.91,28.73c0-3.1-1.11-5.24-2.07-6.91-1.27-2.06-2.46-3.81-2.46-5.88,0-2.3,1.75-4.45,4.21-4.45.11,0,.22.01.33.02-4.46-4.08-10.4-6.58-16.92-6.58-8.75,0-16.45,4.49-20.93,11.29.59.02,1.14.03,1.61.03,2.62,0,6.68-.32,6.68-.32,1.35-.08,1.51,1.9.16,2.06,0,0-1.36.16-2.87.24l9.12,27.14,5.48-16.45-3.9-10.69c-1.35-.08-2.63-.24-2.63-.24-1.35-.08-1.19-2.14.16-2.06,0,0,4.14.32,6.6.32,2.62,0,6.68-.32,6.68-.32,1.35-.08,1.51,1.9.16,2.06,0,0-1.36.16-2.87.24l9.05,26.93,2.5-8.35c1.08-3.47,1.91-5.95,1.91-8.1Z"></path><path class="cls-1" d="m30.44,32.19l-7.52,21.84c2.24.66,4.62,1.02,7.08,1.02,2.92,0,5.72-.51,8.32-1.42-.07-.11-.13-.22-.18-.35l-7.7-21.1Z"></path><path class="cls-1" d="m51.98,17.98c.11.8.17,1.66.17,2.58,0,2.54-.47,5.4-1.91,8.97l-7.65,22.13c7.45-4.34,12.46-12.41,12.46-21.66,0-4.36-1.11-8.45-3.07-12.02Z"></path><path class="cls-1" d="m30,.79C13.89.79.79,13.89.79,30s13.1,29.21,29.21,29.21,29.21-13.1,29.21-29.21c0-16.1-13.1-29.21-29.21-29.21Zm0,57.08c-15.37,0-27.87-12.5-27.87-27.87S14.63,2.13,30,2.13s27.87,12.5,27.87,27.87-12.5,27.87-27.87,27.87Z"></path></svg>